<?xml version="1.0" encoding="UTF-8" standalone="no"?>
<!DOCTYPE svg PUBLIC "-//W3C//DTD SVG 1.1//EN"
 "http://www.w3.org/Graphics/SVG/1.1/DTD/svg11.dtd">
<!-- Generated by graphviz version 2.36.0 (20140111.2315)
 -->
<!-- Title: G Pages: 1 -->
<svg width="754pt" height="1261pt"
 viewBox="0.00 0.00 754.00 1261.00" xmlns="http://www.w3.org/2000/svg" xmlns:xlink="http://www.w3.org/1999/xlink">
<g id="graph0" class="graph" transform="scale(1 1) rotate(0) translate(4 1257)">
<title>G</title>
<polygon fill="white" stroke="none" points="-4,4 -4,-1257 750,-1257 750,4 -4,4"/>
<g id="clust1" class="cluster"><title>cluster_Global</title>
<path fill="none" stroke="gray" d="M319,-314C319,-314 726,-314 726,-314 732,-314 738,-320 738,-326 738,-326 738,-1233 738,-1233 738,-1239 732,-1245 726,-1245 726,-1245 319,-1245 319,-1245 313,-1245 307,-1239 307,-1233 307,-1233 307,-326 307,-326 307,-320 313,-314 319,-314"/>
<text text-anchor="middle" x="522.5" y="-1232.2" font-family="Times,serif" font-size="11.00" fill="gray">Global</text>
</g>
<g id="clust2" class="cluster"><title>cluster_\Codeception</title>
<path fill="none" stroke="gray" d="M612,-852C612,-852 718,-852 718,-852 724,-852 730,-858 730,-864 730,-864 730,-1108 730,-1108 730,-1114 724,-1120 718,-1120 718,-1120 612,-1120 612,-1120 606,-1120 600,-1114 600,-1108 600,-1108 600,-864 600,-864 600,-858 606,-852 612,-852"/>
<text text-anchor="middle" x="665" y="-1107.2" font-family="Times,serif" font-size="11.00" fill="gray">Codeception</text>
</g>
<g id="clust3" class="cluster"><title>cluster_\Codeception\Module</title>
<path fill="none" stroke="gray" d="M620,-860C620,-860 710,-860 710,-860 716,-860 722,-866 722,-872 722,-872 722,-1081 722,-1081 722,-1087 716,-1093 710,-1093 710,-1093 620,-1093 620,-1093 614,-1093 608,-1087 608,-1081 608,-1081 608,-872 608,-872 608,-866 614,-860 620,-860"/>
<text text-anchor="middle" x="665" y="-1080.2" font-family="Times,serif" font-size="11.00" fill="gray">Module</text>
</g>
<!-- \\Codeception\\Module\\AcceptanceHelper -->
<g id="node1" class="node"><title>\\Codeception\\Module\\AcceptanceHelper</title>
<polygon fill="none" stroke="black" points="713.722,-1066 616.278,-1066 616.278,-1030 713.722,-1030 713.722,-1066"/>
<text text-anchor="middle" x="665" y="-1044.7" font-family="Times,serif" font-size="11.00">AcceptanceHelper</text>
</g>
<!-- \\Codeception\\Module -->
<g id="node21" class="node"><title>\\Codeception\\Module</title>
<ellipse fill="none" stroke="black" cx="357" cy="-288" rx="87.4567" ry="18"/>
<text text-anchor="middle" x="357" y="-283.8" font-family="Times,serif" font-size="14.00" fill="gray">\Codeception\Module</text>
</g>
<!-- \\Codeception\\Module\\AcceptanceHelper&#45;&gt;\\Codeception\\Module -->
<g id="edge4" class="edge"><title>\\Codeception\\Module\\AcceptanceHelper&#45;&gt;\\Codeception\\Module</title>
<path fill="none" stroke="black" d="M616.345,-1035.07C609.999,-1031.47 604.234,-1026.87 600,-1021 507.257,-892.479 653.855,-424.24 544,-310 516.586,-281.492 473.235,-275.107 435.278,-276.258"/>
<polygon fill="none" stroke="black" points="435.069,-272.764 425.247,-276.737 435.403,-279.756 435.069,-272.764"/>
</g>
<!-- \\Codeception\\Module\\FunctionalHelper -->
<g id="node2" class="node"><title>\\Codeception\\Module\\FunctionalHelper</title>
<polygon fill="none" stroke="black" points="711.479,-1012 618.521,-1012 618.521,-976 711.479,-976 711.479,-1012"/>
<text text-anchor="middle" x="665" y="-990.7" font-family="Times,serif" font-size="11.00">FunctionalHelper</text>
</g>
<!-- \\Codeception\\Module\\FunctionalHelper&#45;&gt;\\Codeception\\Module -->
<g id="edge7" class="edge"><title>\\Codeception\\Module\\FunctionalHelper&#45;&gt;\\Codeception\\Module</title>
<path fill="none" stroke="black" d="M618.299,-982.099C611.198,-978.353 604.678,-973.439 600,-967 513.874,-848.454 645.904,-415.292 544,-310 516.598,-281.687 473.465,-275.248 435.632,-276.319"/>
<polygon fill="none" stroke="black" points="435.462,-272.823 425.632,-276.776 435.781,-279.816 435.462,-272.823"/>
</g>
<!-- \\Codeception\\Module\\IntegrationHelper -->
<g id="node3" class="node"><title>\\Codeception\\Module\\IntegrationHelper</title>
<polygon fill="none" stroke="black" points="712.187,-958 617.813,-958 617.813,-922 712.187,-922 712.187,-958"/>
<text text-anchor="middle" x="665" y="-936.7" font-family="Times,serif" font-size="11.00">IntegrationHelper</text>
</g>
<!-- \\Codeception\\Module\\IntegrationHelper&#45;&gt;\\Codeception\\Module -->
<g id="edge10" class="edge"><title>\\Codeception\\Module\\IntegrationHelper&#45;&gt;\\Codeception\\Module</title>
<path fill="none" stroke="black" d="M617.695,-927.727C610.84,-924.028 604.56,-919.227 600,-913 520.488,-804.424 637.957,-406.348 544,-310 516.491,-281.791 473.353,-275.358 435.543,-276.405"/>
<polygon fill="none" stroke="black" points="435.382,-272.909 425.55,-276.855 435.697,-279.902 435.382,-272.909"/>
</g>
<!-- \\Codeception\\Module\\UnitHelper -->
<g id="node4" class="node"><title>\\Codeception\\Module\\UnitHelper</title>
<polygon fill="none" stroke="black" points="697.986,-904 632.014,-904 632.014,-868 697.986,-868 697.986,-904"/>
<text text-anchor="middle" x="665" y="-882.7" font-family="Times,serif" font-size="11.00">UnitHelper</text>
</g>
<!-- \\Codeception\\Module\\UnitHelper&#45;&gt;\\Codeception\\Module -->
<g id="edge12" class="edge"><title>\\Codeception\\Module\\UnitHelper&#45;&gt;\\Codeception\\Module</title>
<path fill="none" stroke="black" d="M632.132,-882.33C620.271,-879.312 607.809,-873.852 600,-864 523.139,-767.028 630.75,-398.237 544,-310 516.599,-282.129 473.924,-275.58 436.359,-276.476"/>
<polygon fill="none" stroke="black" points="435.76,-272.998 425.916,-276.914 436.054,-279.991 435.76,-272.998"/>
</g>
<!-- \\NoteCest -->
<g id="node5" class="node"><title>\\NoteCest</title>
<polygon fill="none" stroke="black" points="693.439,-1164 636.561,-1164 636.561,-1128 693.439,-1128 693.439,-1164"/>
<text text-anchor="middle" x="665" y="-1142.7" font-family="Times,serif" font-size="11.00">NoteCest</text>
</g>
<!-- \\User -->
<g id="node6" class="node"><title>\\User</title>
<polygon fill="none" stroke="black" points="692,-628 638,-628 638,-592 692,-592 692,-628"/>
<text text-anchor="middle" x="665" y="-606.7" font-family="Times,serif" font-size="11.00">User</text>
</g>
<!-- \\Eloquent -->
<g id="node18" class="node"><title>\\Eloquent</title>
<ellipse fill="none" stroke="black" cx="357" cy="-234" rx="44.4837" ry="18"/>
<text text-anchor="middle" x="357" y="-229.8" font-family="Times,serif" font-size="14.00" fill="gray">\Eloquent</text>
</g>
<!-- \\User&#45;&gt;\\Eloquent -->
<g id="edge1" class="edge"><title>\\User&#45;&gt;\\Eloquent</title>
<path fill="none" stroke="black" d="M637.925,-605.202C624.615,-601.404 609.308,-594.704 600,-583 509.582,-469.313 648.144,-362.264 544,-261 508.772,-226.746 450.631,-223.448 408.722,-226.54"/>
<polygon fill="none" stroke="black" points="408.363,-223.058 398.709,-227.421 408.977,-230.031 408.363,-223.058"/>
</g>
<!-- \\Illuminate\\Auth\\UserInterface -->
<g id="node19" class="node"><title>\\Illuminate\\Auth\\UserInterface</title>
<ellipse fill="none" stroke="black" cx="357" cy="-180" rx="119.745" ry="18"/>
<text text-anchor="middle" x="357" y="-175.8" font-family="Times,serif" font-size="14.00" fill="gray">\Illuminate\Auth\UserInterface</text>
</g>
<!-- \\User&#45;&gt;\\Illuminate\\Auth\\UserInterface -->
<g id="edge2" class="edge"><title>\\User&#45;&gt;\\Illuminate\\Auth\\UserInterface</title>
<path fill="none" stroke="black" stroke-dasharray="1,5" d="M637.811,-605.292C624.467,-601.52 609.165,-594.816 600,-583 496.45,-449.498 663.689,-326.248 544,-207 526.629,-189.694 503.43,-180.221 479.32,-175.474"/>
<polygon fill="none" stroke="black" points="479.761,-171.999 469.316,-173.773 478.588,-178.9 479.761,-171.999"/>
</g>
<!-- \\Illuminate\\Auth\\Reminders\\RemindableInterface -->
<g id="node20" class="node"><title>\\Illuminate\\Auth\\Reminders\\RemindableInterface</title>
<ellipse fill="none" stroke="black" cx="357" cy="-126" rx="186.356" ry="18"/>
<text text-anchor="middle" x="357" y="-121.8" font-family="Times,serif" font-size="14.00" fill="gray">\Illuminate\Auth\Reminders\RemindableInterface</text>
</g>
<!-- \\User&#45;&gt;\\Illuminate\\Auth\\Reminders\\RemindableInterface -->
<g id="edge3" class="edge"><title>\\User&#45;&gt;\\Illuminate\\Auth\\Reminders\\RemindableInterface</title>
<path fill="none" stroke="black" stroke-dasharray="1,5" d="M637.724,-605.359C624.355,-601.606 609.056,-594.899 600,-583 483.283,-429.638 679.275,-290.272 544,-153 539.265,-148.196 534.083,-143.991 528.555,-140.321"/>
<polygon fill="none" stroke="black" points="529.982,-137.097 519.6,-134.984 526.398,-143.11 529.982,-137.097"/>
</g>
<!-- \\PaperCest -->
<g id="node7" class="node"><title>\\PaperCest</title>
<polygon fill="none" stroke="black" points="695.103,-844 634.897,-844 634.897,-808 695.103,-808 695.103,-844"/>
<text text-anchor="middle" x="665" y="-822.7" font-family="Times,serif" font-size="11.00">PaperCest</text>
</g>
<!-- \\UserCest -->
<g id="node8" class="node"><title>\\UserCest</title>
<polygon fill="none" stroke="black" points="693.327,-790 636.673,-790 636.673,-754 693.327,-754 693.327,-790"/>
<text text-anchor="middle" x="665" y="-768.7" font-family="Times,serif" font-size="11.00">UserCest</text>
</g>
<!-- \\Paper -->
<g id="node9" class="node"><title>\\Paper</title>
<polygon fill="none" stroke="black" points="692,-682 638,-682 638,-646 692,-646 692,-682"/>
<text text-anchor="middle" x="665" y="-660.7" font-family="Times,serif" font-size="11.00">Paper</text>
</g>
<!-- \\Paper&#45;&gt;\\Eloquent -->
<g id="edge5" class="edge"><title>\\Paper&#45;&gt;\\Eloquent</title>
<path fill="none" stroke="black" d="M637.811,-659.292C624.467,-655.52 609.165,-648.816 600,-637 496.45,-503.498 663.689,-380.248 544,-261 509.085,-226.214 450.62,-223.077 408.549,-226.353"/>
<polygon fill="none" stroke="black" points="408.136,-222.876 398.5,-227.279 408.779,-229.846 408.136,-222.876"/>
</g>
<!-- \\FunctionalTester -->
<g id="node10" class="node"><title>\\FunctionalTester</title>
<polygon fill="none" stroke="black" points="709.767,-574 620.233,-574 620.233,-538 709.767,-538 709.767,-574"/>
<text text-anchor="middle" x="665" y="-552.7" font-family="Times,serif" font-size="11.00">FunctionalTester</text>
</g>
<!-- \\Codeception\\Actor -->
<g id="node22" class="node"><title>\\Codeception\\Actor</title>
<ellipse fill="none" stroke="black" cx="357" cy="-72" rx="79.7058" ry="18"/>
<text text-anchor="middle" x="357" y="-67.8" font-family="Times,serif" font-size="14.00" fill="gray">\Codeception\Actor</text>
</g>
<!-- \\FunctionalTester&#45;&gt;\\Codeception\\Actor -->
<g id="edge6" class="edge"><title>\\FunctionalTester&#45;&gt;\\Codeception\\Actor</title>
<path fill="none" stroke="black" d="M620.162,-544.753C612.417,-540.924 605.185,-535.813 600,-529 483.283,-375.638 679.275,-236.272 544,-99 516.784,-71.3827 474.759,-63.5865 437.537,-63.1608"/>
<polygon fill="none" stroke="black" points="437.16,-59.663 427.182,-63.2259 437.204,-66.6629 437.16,-59.663"/>
</g>
<!-- \\UnitTester -->
<g id="node11" class="node"><title>\\UnitTester</title>
<polygon fill="none" stroke="black" points="696.273,-412 633.727,-412 633.727,-376 696.273,-376 696.273,-412"/>
<text text-anchor="middle" x="665" y="-390.7" font-family="Times,serif" font-size="11.00">UnitTester</text>
</g>
<!-- \\UnitTester&#45;&gt;\\Codeception\\Actor -->
<g id="edge8" class="edge"><title>\\UnitTester&#45;&gt;\\Codeception\\Actor</title>
<path fill="none" stroke="black" d="M633.851,-387.773C621.67,-383.783 608.508,-377.334 600,-367 522.658,-273.058 632.662,-182.342 544,-99 516.292,-72.9542 475.263,-65.0272 438.785,-64.1199"/>
<polygon fill="none" stroke="black" points="438.659,-60.6189 428.632,-64.0409 438.604,-67.6187 438.659,-60.6189"/>
</g>
<!-- \\HomeController -->
<g id="node12" class="node"><title>\\HomeController</title>
<polygon fill="none" stroke="black" points="709.096,-1218 620.904,-1218 620.904,-1182 709.096,-1182 709.096,-1218"/>
<text text-anchor="middle" x="665" y="-1196.7" font-family="Times,serif" font-size="11.00">HomeController</text>
</g>
<!-- \\BaseController -->
<g id="node16" class="node"><title>\\BaseController</title>
<polygon fill="none" stroke="black" points="398.097,-1218 315.903,-1218 315.903,-1182 398.097,-1182 398.097,-1218"/>
<text text-anchor="middle" x="357" y="-1196.7" font-family="Times,serif" font-size="11.00">BaseController</text>
</g>
<!-- \\HomeController&#45;&gt;\\BaseController -->
<g id="edge9" class="edge"><title>\\HomeController&#45;&gt;\\BaseController</title>
<path fill="none" stroke="black" d="M620.807,-1200C565.013,-1200 468.045,-1200 408.784,-1200"/>
<polygon fill="none" stroke="black" points="408.535,-1196.5 398.534,-1200 408.534,-1203.5 408.535,-1196.5"/>
</g>
<!-- \\TestCommons -->
<g id="node13" class="node"><title>\\TestCommons</title>
<polygon fill="none" stroke="black" points="704.901,-520 625.099,-520 625.099,-484 704.901,-484 704.901,-520"/>
<text text-anchor="middle" x="665" y="-498.7" font-family="Times,serif" font-size="11.00">TestCommons</text>
</g>
<!-- \\ParsersCest -->
<g id="node14" class="node"><title>\\ParsersCest</title>
<polygon fill="none" stroke="black" points="698.827,-466 631.173,-466 631.173,-430 698.827,-430 698.827,-466"/>
<text text-anchor="middle" x="665" y="-444.7" font-family="Times,serif" font-size="11.00">ParsersCest</text>
</g>
<!-- \\TestCase -->
<g id="node15" class="node"><title>\\TestCase</title>
<polygon fill="none" stroke="black" points="692.555,-358 637.445,-358 637.445,-322 692.555,-322 692.555,-358"/>
<text text-anchor="middle" x="665" y="-336.7" font-family="Times,serif" font-size="11.00">TestCase</text>
</g>
<!-- \\Illuminate\\Foundation\\Testing\\TestCase -->
<g id="node23" class="node"><title>\\Illuminate\\Foundation\\Testing\\TestCase</title>
<ellipse fill="none" stroke="black" cx="357" cy="-18" rx="154.051" ry="18"/>
<text text-anchor="middle" x="357" y="-13.8" font-family="Times,serif" font-size="14.00" fill="gray">\Illuminate\Foundation\Testing\TestCase</text>
</g>
<!-- \\TestCase&#45;&gt;\\Illuminate\\Foundation\\Testing\\TestCase -->
<g id="edge11" class="edge"><title>\\TestCase&#45;&gt;\\Illuminate\\Foundation\\Testing\\TestCase</title>
<path fill="none" stroke="black" d="M662.624,-321.782C657.603,-269.234 635.418,-116.583 544,-45 534.567,-37.6133 524.013,-31.7902 512.854,-27.234"/>
<polygon fill="none" stroke="black" points="513.942,-23.9046 503.349,-23.6982 511.502,-30.4653 513.942,-23.9046"/>
</g>
<!-- \\Controller -->
<g id="node24" class="node"><title>\\Controller</title>
<ellipse fill="none" stroke="black" cx="49" cy="-1200" rx="48.8273" ry="18"/>
<text text-anchor="middle" x="49" y="-1195.8" font-family="Times,serif" font-size="14.00" fill="gray">\Controller</text>
</g>
<!-- \\BaseController&#45;&gt;\\Controller -->
<g id="edge13" class="edge"><title>\\BaseController&#45;&gt;\\Controller</title>
<path fill="none" stroke="black" d="M315.681,-1200C262.6,-1200 168.914,-1200 108.165,-1200"/>
<polygon fill="none" stroke="black" points="107.966,-1196.5 97.9662,-1200 107.966,-1203.5 107.966,-1196.5"/>
</g>
<!-- \\Note -->
<g id="node17" class="node"><title>\\Note</title>
<polygon fill="none" stroke="black" points="692,-736 638,-736 638,-700 692,-700 692,-736"/>
<text text-anchor="middle" x="665" y="-714.7" font-family="Times,serif" font-size="11.00">Note</text>
</g>
<!-- \\Note&#45;&gt;\\Eloquent -->
<g id="edge14" class="edge"><title>\\Note&#45;&gt;\\Eloquent</title>
<path fill="none" stroke="black" d="M637.724,-713.359C624.355,-709.606 609.056,-702.899 600,-691 483.283,-537.638 679.275,-398.272 544,-261 509.3,-225.788 450.524,-222.797 408.324,-226.223"/>
<polygon fill="none" stroke="black" points="407.868,-222.751 398.247,-227.187 408.535,-229.719 407.868,-222.751"/>
</g>
</g>
</svg>
